<svg xmlns="http://www.w3.org/2000/svg" viewBox="0 0 78 24">
  <path fill-rule="evenodd" d="M44.81 16.75h4.13l1.6-6.75a4.49 4.49 0 0 1 .86-1.91c.84-.77 3.1-.65 3.1-.65l.91-3.8a22.68 22.68 0 0 0-5 .36 5.09 5.09 0 0 0-2.11 1.33 7.94 7.94 0 0 0-1.4 2.79l-2.07 8.6zM9.13 7.11h15.08a2.42 2.42 0 0 1 1.91.81 2.7 2.7 0 0 1 .17 2.94 3.33 3.33 0 0 1-3.23 2.2h-2.7l1.11-4.68h-4.15L13.6 24h4.13l1.74-7.26h2.75a8.88 8.88 0 0 0 3.94-.86 7.64 7.64 0 0 0 3-3.13 11.08 11.08 0 0 0 1-3.66 4.76 4.76 0 0 0-.81-3.52A4.73 4.73 0 0 0 26.94 4a14.78 14.78 0 0 0-2.63-.28H8.61a5.87 5.87 0 0 0-4.42 1.6A4.23 4.23 0 0 0 3 8.16a3.85 3.85 0 0 0 .77 2.44 3.94 3.94 0 0 0 2.86 1.22h2.78a2.06 2.06 0 0 1 .59.1.58.58 0 0 1 .31.59c0 .3-.14.67-1.14.72H1.33L0 16.76h9.4c1.26 0 3.57-.25 4.63-2.07a7.09 7.09 0 0 0 .76-2.9 3.65 3.65 0 0 0-.51-1.93 2.92 2.92 0 0 0-1.7-1.25 7.82 7.82 0 0 0-1.58-.2H8.38c-.5 0-.88-.15-.83-.66a.73.73 0 0 1 .53-.6 6.93 6.93 0 0 1 1.05 0zM39 6.41a3.88 3.88 0 0 0-2.78 1.24 5.06 5.06 0 0 0-1.35 3.13 3.54 3.54 0 0 0 .54 2.22 2.87 2.87 0 0 0 2.18 1 3.76 3.76 0 0 0 2.86-1.2 5.36 5.36 0 0 0 1.34-3.56 2.76 2.76 0 0 0-.77-2A2.92 2.92 0 0 0 39 6.41l.53-3.07a6.87 6.87 0 0 1 4.8 1.6 5.23 5.23 0 0 1 1.43 4 8.78 8.78 0 0 1-2.5 5.82 9.15 9.15 0 0 1-6.7 2.46 6.58 6.58 0 0 1-4.68-1.89 4.94 4.94 0 0 1-1.32-3.68 7.87 7.87 0 0 1 1.67-4.69 9.62 9.62 0 0 1 7.3-3.6zM57.43 0h4.16l-.9 3.74h3.15L63 7.43h-3.18l-.94 4.11c-.15.84 0 1.26.47 1.55a3.4 3.4 0 0 0 .85.16h9c1 0 1.72-.1 1.75-.77s-.82-.67-.82-.67h-2.56a4.58 4.58 0 0 1-3-1 3.39 3.39 0 0 1-.85-2.64A4.64 4.64 0 0 1 65 5.06a5.46 5.46 0 0 1 3.7-1.32H78L76.7 7.1h-7.65c-.5 0-.73.09-.87.27a.73.73 0 0 0-.11.7c.09.22.31.31 1 .34h2.39a5 5 0 0 1 2.84.77 3 3 0 0 1 1.08 2.63 4.9 4.9 0 0 1-1.45 3.5c-.73.74-1.74 1.29-4.76 1.44H58c-1.2 0-2.19 0-3.1-1a3.65 3.65 0 0 1-.52-3.11L57.43 0z"/>
</svg>
