<svg id="Layer_1" data-name="Layer 1" xmlns="http://www.w3.org/2000/svg" viewBox="0 0 2426.46 744.45"><defs><style>.cls-1{fill-rule:evenodd;}</style></defs><title>sports</title><path class="cls-1" d="M1430.88,1397.22h128.33l49.88-208.31c8-28.23,15.87-49.14,26.83-59.23,26.12-24,96.28-20.26,96.28-20.26l28.39-117.76c-44.53.23-113.48-.6-156.3,11.1-24.74,6.77-50.86,25.76-65.7,41.2-27.11,28.21-43.29,86.59-43.29,86.59l-64.42,266.67Zm-1109.94-299H790.05c27.37.69,49.29,11.2,59.4,25.28,12.33,17.17,25.46,42.78,5.21,91.09-21.64,51.58-60.27,67-100.61,68.22h-84l34.63-145.12H575.51L460,1622.22H588.49l53.85-225.12s37.34.16,85.72.18c37.36-.79,81.2-5.18,122.57-26.73,44.74-23.28,75.27-62.13,94.4-96.92,17.65-32.1,29-84.67,31.68-113.6,2.34-25.32,5.58-67.83-25.44-109.27-14.11-18.86-45-42-76.38-49.35-34.22-8.06-81.91-8.5-81.91-8.5H304.66c-75.16.7-115.16,26.68-137.51,49.53-24.13,24.71-36.48,58.71-36.36,88.32.11,28,7.57,57.87,23.89,75.86,14.83,16.34,39.66,34.46,89,37.75h85.72s11.84.38,18.36,3.28a17.9,17.9,0,0,1,9.87,18.19c-1.35,9.22-4.37,20.89-35.67,22.16H78.16L36.77,1397.79H329.26c39-.51,111-7.76,143.9-64.42,12.27-21.1,23.21-60.57,23.61-89.87A111.21,111.21,0,0,0,481,1183.76c-7.91-13.43-22.91-28.91-53-39-15.66-5.24-49.87-6.22-49.87-6.22H297.58c-15.58,0-27.56-4.7-26-20.26.91-8.85,7.89-16.15,16.63-18.7,6.45-1.91,32.7-1.41,32.7-1.41Zm927.83-21.54c-31.89.34-59.56,12.43-86.48,38.38-25.61,24.68-39.29,63.07-42,97-1.67,20.94,4.24,50.11,18.2,67.92,13.69,17.48,41.44,30.75,67.57,30.09,39.65-1,67.09-13.1,89-37.11,25.73-28.17,42.66-70.42,41.65-110.46-.56-21.06-5.07-42.53-23.79-61.27s-44.34-24.71-64.17-24.5l16.64-95.49c53.17-.69,111.71,13.86,149.1,49.9s45.16,83.76,44.51,122.9c-.8,48.89-17.78,116.07-77.74,180.75-52.84,57-144.78,79.12-208.5,76.22s-110.85-23-145.46-58.74C997,1321,986.1,1284.45,986.1,1238.33c0-40.73,13-93.58,52.13-145.6,45.89-61,133.69-110.34,227.19-111.54Zm574.6-198.9h129.37l-28.07,115.86h98.19l-27,114.64h-98.18l-29.1,127.45c-4.66,26-.16,39.19,14.56,48,6.06,3.62,26.5,5.19,26.5,5.19h279.48c31.18-.51,53.56-3.32,54.54-24.06,1.07-21.31-25.43-20.78-25.43-20.78h-79.51c-41.56-2.07-76.37-13.51-93-31.16-14.36-15.26-27.53-37.93-26.5-82.09,1.17-49.85,27.54-85.2,39-96.1s53.69-42.09,115-41.05h290.07l-40.35,104.42H2184.94c-15.58.51-22.67,2.84-27,8.31-4.52,5.71-6.7,14.68-3.65,21.83,2.84,6.64,9.88,9.35,29.61,10.39h74.3c37.93,2.07,69.46,8,88.32,23.89,17.19,14.47,33.77,33.24,33.77,81.56,0,54.58-26.93,89.94-45.19,108.59-22.62,23.1-54,40-148.06,44.68H1842.1c-37.42-.53-68.07,1-96.64-31.69s-18.87-73.61-16.11-96.47l94-391.37Z" transform="translate(-36.77 -877.77)"/></svg>