<?xml version="1.0" encoding="utf-8"?>
<!-- Generator: Adobe Illustrator 23.0.3, SVG Export Plug-In . SVG Version: 6.00 Build 0)  -->
<svg version="1.1" id="Layer_1" xmlns="http://www.w3.org/2000/svg" xmlns:xlink="http://www.w3.org/1999/xlink" x="0px" y="0px"
	 viewBox="0 0 175.7 132.2" style="enable-background:new 0 0 175.7 132.2;" xml:space="preserve">
<style type="text/css">
	.st0{fill-rule:evenodd;clip-rule:evenodd;}
</style>
<path class="st0" d="M31.2,69.1c0,1.5,0.5,2.8,1.5,4c1.2,1,2.5,1.5,4.2,1.5c1.5,0,2.7-0.5,3.5-1.5c1-1,1.5-2.2,1.5-3.7
	c0-1.6-0.5-3-1.5-4c-0.9-1-2-1.5-3.5-1.5s-2.8,0.5-4,1.5C31.7,66.4,31.2,67.5,31.2,69.1L31.2,69.1z M14.1,63.3
	c-1.5,0-2.8,0.5-3.7,1.5c-1.2,1.2-1.6,2.5-1.6,4c0,1.5,0.5,2.7,1.6,3.7c0.9,1,2.2,1.5,3.7,1.5c1.5,0,2.8-0.5,3.9-1.5
	c1-1,1.5-2.2,1.5-3.7c0-1.5-0.5-2.8-1.5-4C16.9,63.8,15.6,63.3,14.1,63.3L14.1,63.3z M61,43.7l0.3-0.7H131c-7,4.9-12.7,10.8-16.9,18
	c-4.2,7-7.7,17.2-10.8,30.8c-2.3,10.9-3.5,19.4-3.5,26v1c-3.7-0.7-7.3-1.7-11.1-3.2c-6.5-2.8-12.2-6.7-17.1-11.6
	c-3.5-3.3-6.4-7.2-8.7-11.7c1.2-1.5,2.5-3.2,3.8-5.4c3.2-5.5,4.7-11.6,4.7-17.9c0-4.9-0.9-9.4-2.7-13.8C67,51,64.5,47.1,61,43.7
	L61,43.7z M26.6,68.9v-1.4V53.8h4.5V62v-0.2c0.3-0.5,1-0.8,1.8-1.4c0.8-0.5,2-0.8,3.3-0.8c2.7,0,4.9,0.8,6.7,2.7
	c1.9,1.8,2.8,4.1,2.8,6.7c0,2.5-0.8,4.7-2.3,6.5c-1.8,2.2-4.1,3.2-6.7,3.2c-3.2,0-5.5-1-7.4-2.8C27.6,73.9,26.8,71.6,26.6,68.9
	L26.6,68.9z M4.2,69.1c0-2.6,0.8-4.7,2.7-6.6c1.7-2.2,4.2-3.2,7.4-3.2c2.2,0,4.2,0.7,6.4,2.2c2,1.5,3,4.1,3,7.6v8.9h-4.1v-1.9
	c-1.6,1.2-3.5,1.9-5.4,1.9c-3.5,0-6-1-7.7-2.8C5,73.2,4.2,71.2,4.2,69.1L4.2,69.1z M67.2,72.2c-0.5,1.9-1.8,3.4-3.7,4.5
	c-1.7,1.4-3.5,2-5.5,2c-2.5,0-4.7-1-6.7-2.8c-1.8-1.8-2.8-4.2-2.8-7c0-2.7,1-5,2.8-6.9c1.9-1.9,4.2-2.7,6.7-2.7
	c1.4,0,2.7,0.3,4.1,0.8c1.2,0.5,2.3,1.4,3.3,2.2c0.9,1.2,1.4,2.3,1.8,3.5h-5c-1-1.5-2.3-2.4-4.2-2.4c-1.5,0-2.7,0.5-3.7,1.5
	c-1.2,1-1.7,2.4-1.7,3.9c0,1.5,0.5,2.8,1.7,4c1,1,2.2,1.5,3.7,1.5c1.9,0,3.4-0.7,4.2-2.2L67.2,72.2L67.2,72.2z M158.7,44.6
	c0.2,0.1,0.2,0.5,0.3,0.8c2.8,6.5,4.2,13.6,4.2,20.9c0,7.2-1.4,13.9-4.2,20.5c-2.7,6.5-6.5,12.4-11.5,17.2
	c-4.9,4.9-10.6,8.7-17.1,11.6c-5,2-10.2,3.3-15.6,3.9v-1.2c0-19.4,3.7-35.3,11.1-47.7C133,58.3,144.1,49.6,158.7,44.6L158.7,44.6z
	 M150.1,30.8H69.4c0.8-0.9,1.5-1.7,2.3-2.5c4.9-4.9,10.6-8.7,17.1-11.6c6.6-2.7,13.4-4,20.6-4c0.2,0,0.2,0,0.3,0
	c7.4,0,14.2,1.4,20.8,4.2c6.4,2.7,12.1,6.5,16.9,11.4C148.4,29.1,149.3,30,150.1,30.8L150.1,30.8z M53.1,100.5
	c2.8,4.5,6,8.7,9.7,12.4c6,6,13.1,10.7,21.1,14.2c8.2,3.4,16.7,5.1,25.8,5.1c8.9,0,17.4-1.7,25.5-5.1c8.1-3.5,15.1-8.2,21.3-14.4
	c6-6,10.7-13.1,14.1-21.1c3.5-7.9,5.2-16.4,5.2-25.3c0-9.1-1.6-17.6-5.2-25.6c-3.4-8.1-8.1-15.1-14.1-21.3
	c-6.2-6-13.2-10.7-21.1-14.2C127.3,1.7,118.8,0,109.7,0C100.5,0,92,1.7,84,5.2c-8.1,3.3-15.1,8-21.1,14.2c-4.9,4.8-9,10.5-12.2,16.9
	c-0.3-0.1-0.7-0.1-1-0.3c-4.2-1.8-8.9-2.8-13.8-2.8c-6.5,0-12.4,1.7-17.9,4.9c-5.5,3.2-9.9,7.7-13.1,13.2C1.7,56.8,0,62.7,0,69.1
	c0,6.3,1.7,12.2,4.9,17.8c3.2,5.5,7.5,10,13.1,13.2c5.5,3.2,11.4,4.7,17.9,4.7C42.1,104.7,47.9,103.4,53.1,100.5L53.1,100.5
	L53.1,100.5z"/>
</svg>
