<svg id="Layer_1" data-name="Layer 1" xmlns="http://www.w3.org/2000/svg" viewBox="0 0 1153 452.47"><defs><style>.cls-1{fill:#fe8132;}.cls-2{fill:#04539f;}</style></defs><title>MASN</title><path class="cls-1" d="M798.3,342.08c-15.28,11.07-30.44,21-45.85,30.58-36,22.42-74,40.87-114.22,54.4-28,9.42-56.57,16.91-86.49,15.41-17-.85-33.88-3.58-48.18-14.08-19.25-14.13-24.78-34.18-23.85-56.82.82-20,7.46-38.45,15.38-56.48,16.51-37.59,40.48-70.36,67.34-101C619.87,148.59,687,95,763.24,52.82c40-22.14,81.85-40.13,127-49.4C901,1.19,911.92-.8,923.17.32c-9,2.58-18.18,4.81-27.08,7.79-44.47,14.9-85.63,36.51-124.86,62a720.37,720.37,0,0,0-114.85,92c-24.68,24.43-47.36,50.63-66.61,79.58-15.63,23.49-29.23,48.07-36.25,75.74-3.43,13.55-5,27.42-2,41.08,4.07,18.46,15.51,31.3,33.31,38.2,19.42,7.53,39.53,7.29,59.62,4.49,43.6-6.09,83.64-22.61,122.26-43,8.83-4.66,17.47-9.66,26.24-14.43C794.31,343.06,795.48,341.63,798.3,342.08Z"/><path class="cls-2" d="M761.06,111.38c36-25.53,73-48.43,112.8-66.78,34-15.67,69-28.32,106.2-33.5,23.17-3.23,46.41-3.79,68.5,6.14,19.23,8.66,30.31,23.6,33.41,44.45,3.64,24.41-4.14,46.73-11.91,69.28-3.73,10.81-9.41,14.27-20.74,13.94-16.93-.49-33.35,3.22-48.12,14.36,2.65-8.17,5.28-15.39,7.31-22.78,4.23-15.37,6.51-31,2-46.66-6.47-22.56-22.87-34.29-44.76-39-19.79-4.24-39.68-2.6-59.39,1.25-50.31,9.83-95.51,32.07-139.45,57.4C765.27,110.43,763.86,112.21,761.06,111.38Z"/><path class="cls-2" d="M926,270.42c0,12.84,0,25.76,0,38.68,0,2.12-1.39,2.82-2.61,3.87a734.13,734.13,0,0,1-132.17,90.5c-36.9,19.67-75.28,35.69-116.39,44.46a193.79,193.79,0,0,1-39.47,4.54,363.5,363.5,0,0,0,49.7-15.27c40.6-15.59,78.35-36.61,114.58-60.57,44.8-29.62,85.15-64.46,122.2-103.23,1-1.09,2.14-2.1,3.23-3.13C925.18,270.21,925.4,270.31,926,270.42Z"/><path d="M0,146.82H60v31.84l1,.17c.81-2.24,1.7-4.45,2.41-6.73,3.09-9.89,10-16.31,19-20.81a69.31,69.31,0,0,1,31.21-7.46c10.17-.05,20.34-.11,30.5,0,17.07.2,32.68,5,44.91,17.21,6.15,6.15,10.74,13.85,16,20.84,2.4-4.92,4.84-10.65,7.88-16,7-12.38,18.07-19,31.92-20.45,24.08-2.58,48.18-3.34,72,2.39,26.31,6.34,42,26.38,45.17,52.87,4.53,38,.68,76.24,2.36,114.76H300v-5.14c0-29.33-.34-58.67.12-88,.31-19.42-7.5-26.36-24.37-27.95-13.3-1.26-26.92-.46-40.28.75-9.45.85-17.52,5.51-20.49,15.69a24.71,24.71,0,0,0-.94,6.84q-.09,46.25,0,92.49v5.34H150V220.69c0-18.1-4-24-22.14-26.07a177.3,177.3,0,0,0-40.8.08c-16.33,1.93-23.89,11.9-24,28.46C62.89,252,63,280.82,63,309.65v6.17H0Z"/><path d="M1153,316.82l-62.48-.07a7.87,7.87,0,0,1-1.52-.47v-5.12c0-31-.22-62,.13-93,.11-9.84-4.78-15.73-12.86-19.32A43.54,43.54,0,0,0,1061,195c-12.63-.57-25.37-1-38,0-12.95,1-24.21,6.47-29.78,19.31a36.86,36.86,0,0,0-3.1,13.92c-.28,27.49-.14,55-.14,82.47v5.81H926.23V148.08h63.52v25.14l1.17.48c1.33-2,2.71-4.08,4-6.16,7-11.26,17.71-17,30.07-19.67,28.66-6.18,57.22-4.63,85.39,3,25.68,6.92,38.93,29.75,41.63,53.16.19,1.62.65,3.22,1,4.83Z"/><path d="M879.74,195.64H816.56c-2.93-9.14-11-10.54-19-10.69-19.3-.37-38.61-.2-57.92,0a28.69,28.69,0,0,0-8.23,1.78c-5.45,1.76-6.41,3.85-6.44,10.73,0,4.93,3,6.88,7,7.67a75.17,75.17,0,0,0,13.83,1.66c22,.17,44-.24,66,.18,16,.31,31.87,1.9,47.25,6.78,19.39,6.15,30,20.6,30,40.91,0,5.62.13,11.24-.07,16.85-.84,24.18-12,38.31-35.64,43.1a202.89,202.89,0,0,1-36.52,4.07c-31.31.56-62.64.37-94,.1a104.55,104.55,0,0,1-37.36-6.89c-15.58-6.07-24.07-17.57-26.27-33.93-.59-4.43-.95-8.89-1.46-13.74h65.2c1.64,9.35,6,13.91,17.74,14.28,23.1.72,46.24.29,69.36.28a19.94,19.94,0,0,0,4.39-.86c6.76-1.58,9.74-5,9.75-11.22A12.48,12.48,0,0,0,814.31,254a55.5,55.5,0,0,0-10.89-1.17c-24.33-.1-48.67.49-73-.27a209.89,209.89,0,0,1-38.42-5c-15.89-3.52-26-14-29.95-30.06-3.23-13.25-4.12-26.56-.83-40,3.6-14.68,18.18-27.41,35.46-29.62a374.2,374.2,0,0,1,39.14-3c22.48-.48,45-.83,67.47.11a261.48,261.48,0,0,1,45.38,5.78C872.14,156,880.24,171.49,879.74,195.64Z"/><path d="M540.32,212.84c-7.72,9.8-14.93,19.14-22.43,28.23-1,1.21-3.44,1.62-5.24,1.68-12.63.46-25.3.36-37.9,1.21-7.06.48-15.26,1.56-17.45,9.84-4.23,16-.45,21.68,15,23.95,6.06.88,12.24,1,19,1.49-1.51,2.61-3.05,5.05-4.36,7.61-4.64,9-9.39,18-13.67,27.17-1.52,3.27-3.36,4.28-6.8,4.2-13.76-.36-27.54.39-41.09-3.27-16.56-4.48-27.74-14.37-29.63-31.64a193.47,193.47,0,0,1-.25-39.68c1.84-18.57,14.63-28.23,31.85-31.56a207.83,207.83,0,0,1,37.61-4c21.27-.17,42.55,1.06,63.82,1.82a37.47,37.47,0,0,1,7.31,1.48A42.42,42.42,0,0,1,540.32,212.84Z"/><path d="M595.34,155.42l-41,41.91c-3-10.77-11.34-13.35-20.85-13.46-18.47-.2-36.95-.26-55.42,0-12.35.16-13.27,1.13-16.84,12.75h-59.7c-4.76-24,11-46.73,35.13-49.61,14.49-1.73,29.13-2.75,43.73-3q37.94-.72,75.91,0c13,.28,25.74,3.06,37.09,10.11C594.24,154.6,595,155.19,595.34,155.42Z"/><path d="M577.23,315.43c7.6-30.53,22.2-57.34,40.3-83.73v83.73Z"/></svg>