<?xml version="1.0" encoding="utf-8"?>
<!-- Generator: Adobe Illustrator 21.1.0, SVG Export Plug-In . SVG Version: 6.00 Build 0)  -->
<svg version="1.1" id="Layer_1" xmlns="http://www.w3.org/2000/svg" xmlns:xlink="http://www.w3.org/1999/xlink" x="0px" y="0px"
	 viewBox="0 0 352.2 115" style="enable-background:new 0 0 352.2 115;" xml:space="preserve">
<style type="text/css">
	.st0{fill:#FFFFFF;}
	.st1{fill:#004276;}
</style>
<g>
	<path class="st0" d="M45.3,0L27,115h5.1L49.9,0H45.3z"/>
	<path class="st0" d="M320.3,0L302,115h5.1L324.9,0H320.3z"/>
	<g>
		<path class="st1" d="M17.4,0l-6.5,43.2c7.7,1.1,13.5,7.8,13.5,15.7c0,8.8-7.1,15.9-15.9,15.9c-0.8,0-1.6-0.1-2.4-0.2L0,115h29
			L46.8,0H17.4z"/>
	</g>
	<g>
		<path class="st1" d="M48.9,0L30.7,115h272.5L321,0H48.9z"/>
		<polygon class="st0" points="95.4,98.9 85.7,63.2 80,98.6 58,98.6 70.3,17 93,17 101.5,53.2 107.6,17 130.3,17 117.3,98.9 		"/>
		<polygon class="st0" points="166.9,79.1 164.5,98.6 123.8,98.9 136.8,17.1 177.3,17.4 173.8,38.3 156.7,38.1 155.7,48.2 170.1,48 
			166.9,68.4 152,68.4 150.8,79.2 		"/>
		<polygon class="st0" points="279.4,98.9 257.5,98.9 247.9,63.2 242.1,98.6 220.1,98.6 232.5,17 255.2,17 263.6,53.2 269.8,17 
			292.5,17 		"/>
		<path class="st0" d="M205.7,49c18.2,14.7,18,43.8-6.4,49.7c-10.1,2.4-20.7,2.3-29.7-1.6l4.3-23.9c1.9,2.7,4.5,4.5,7.3,5.6
			c3,1.1,7,1.7,9.4,1.3c2.5-0.4,4-1.9,4.5-4.2c0.5-2.2-1.2-4.7-2.6-6.4c-3-3.6-7.7-6-10.3-10.3c-6.7-9.6-4.2-25,2.3-33.9
			c4.5-6,10.7-8.8,17.4-9.5c3.5-0.3,7.1,0,10.7,0.8c3.7,0.8,6.1,1.5,7.9,2.2c1.8,0.7,3.5,1.9,3.5,1.9l-3.4,21.7
			c-3.7-4.3-10.3-7.5-14.9-6.7C201.9,36.4,197.1,42.1,205.7,49z"/>
	</g>
	<g>
		<path class="st1" d="M334.7,115l6.5-43.1c-7.7-1.1-13.5-7.8-13.5-15.7c0-8.8,7.1-15.9,15.9-15.9c0.8,0,1.6,0.1,2.4,0.2L352.2,0
			h-29l-18,115H334.7z"/>
	</g>
</g>
</svg>
