<?xml version="1.0" encoding="UTF-8" standalone="no"?>
<!-- Created with Inkscape (http://www.inkscape.org/) -->

<svg
   xmlns:dc="http://purl.org/dc/elements/1.1/"
   xmlns:cc="http://creativecommons.org/ns#"
   xmlns:rdf="http://www.w3.org/1999/02/22-rdf-syntax-ns#"
   xmlns:svg="http://www.w3.org/2000/svg"
   xmlns="http://www.w3.org/2000/svg"
   xmlns:sodipodi="http://sodipodi.sourceforge.net/DTD/sodipodi-0.dtd"
   xmlns:inkscape="http://www.inkscape.org/namespaces/inkscape"
   width="473.285"
   height="76.592033"
   id="svg6056"
   version="1.1"
   inkscape:version="0.48.1 "
   sodipodi:docname="AJAX.svg">
  <defs
     id="defs6058" />
  <sodipodi:namedview
     id="base"
     pagecolor="#ffffff"
     bordercolor="#666666"
     borderopacity="1.0"
     inkscape:pageopacity="0.0"
     inkscape:pageshadow="2"
     inkscape:zoom="3.1445312"
     inkscape:cx="367.08091"
     inkscape:cy="29.782563"
     inkscape:document-units="px"
     inkscape:current-layer="g156"
     showgrid="false"
     fit-margin-top="0"
     fit-margin-left="0"
     fit-margin-right="0"
     fit-margin-bottom="0"
     inkscape:window-width="1280"
     inkscape:window-height="1004"
     inkscape:window-x="-8"
     inkscape:window-y="-8"
     inkscape:window-maximized="1" />
  <metadata
     id="metadata6061">
    <rdf:RDF>
      <cc:Work
         rdf:about="">
        <dc:format>image/svg+xml</dc:format>
        <dc:type
           rdf:resource="http://purl.org/dc/dcmitype/StillImage" />
        <dc:title />
      </cc:Work>
    </rdf:RDF>
  </metadata>
  <g
     inkscape:label="Layer 1"
     inkscape:groupmode="layer"
     id="layer1"
     transform="translate(-124.8424,-445.55272)">
    <g
       id="g156"
       transform="matrix(2.7494023,0,0,-2.7494023,509.8279,499.63265)">
      <path
         d="M 0,0 C -1.373,0 -2.575,-0.934 -3.005,-2.967 -3.437,-5 -2.631,-5.935 -1.258,-5.935 0.117,-5.935 1.318,-5 1.749,-2.967 2.18,-0.934 1.375,0 0,0 m 3.974,-6.471 c -1.291,-1.03 -3.154,-1.717 -5.709,-1.717 -4.851,0 -6.159,2.253 -5.53,5.221 0.408,1.923 1.472,3.311 2.784,4.122 1.091,0.673 2.403,1.098 4.959,1.098 4.85,0 6.159,-2.253 5.53,-5.22 C 5.685,-4.492 4.964,-5.688 3.974,-6.471"
         style="fill:#5b6770;fill-opacity:1;fill-rule:nonzero;stroke:none"
         id="path158"
         inkscape:connector-curvature="0" />
    </g>
    <g
       id="g160"
       transform="matrix(2.7494023,0,0,-2.7494023,531.72385,494.15527)">
      <path
         d="m 0,0 6.114,0 1.929,-6.649 0.041,0 1.41,6.649 3.627,0 -2.102,-9.92 -5.922,0 -2.049,7.062 -0.027,0 -1.497,-7.062 -3.628,0 L 0,0 z"
         style="fill:#5b6770;fill-opacity:1;fill-rule:nonzero;stroke:none"
         id="path162"
         inkscape:connector-curvature="0" />
    </g>
    <g
       id="g164"
       transform="matrix(2.7494023,0,0,-2.7494023,571.98609,494.15527)">
      <path
         d="m 0,0 9.508,0 -0.443,-2.089 -5.469,0 -0.387,-1.827 5.125,0 -0.442,-2.087 -5.125,0 -0.388,-1.828 5.524,0 -0.443,-2.089 -9.563,0 L 0,0 z"
         style="fill:#5b6770;fill-opacity:1;fill-rule:nonzero;stroke:none"
         id="path166"
         inkscape:connector-curvature="0" />
    </g>
    <g
       id="g168"
       transform="matrix(2.7494023,0,0,-2.7494023,497.49463,458.90162)">
      <path
         d="m 0,0 1.525,0 -2.238,-10.524 14.444,0 0.671,3.154 -8.343,0 0.587,2.761 7.742,0 0.67,3.154 -7.741,0 0.586,2.761 8.261,0 0.67,3.154 -15.879,0 L 0,0 z m 17.736,4.46 -0.672,-3.154 4.918,0 -2.511,-11.83 6.308,0 2.513,11.83 4.655,0 0.672,3.154 -15.883,0 z m -23.271,0.001 -2.137,-10.047 -0.063,0 -2.907,10.047 -10.803,0 -0.954,-4.461 1.569,0 -1.951,-9.181 c 0.298,0.005 0.593,0.01 0.891,0.01 1.519,0 3.035,-0.058 4.555,-0.176 l 2.017,9.491 0.042,0 2.919,-10.091 c 2.885,-0.469 5.798,-1.146 8.778,-2.049 0.014,-0.004 0.031,-0.01 0.047,-0.016 l 3.479,16.473 -5.482,0 z"
         style="fill:#5b6770;fill-opacity:1;fill-rule:nonzero;stroke:none"
         id="path170"
         inkscape:connector-curvature="0" />
    </g>
    <g
       id="g172"
       transform="matrix(2.7494023,0,0,-2.7494023,267.55441,467.23726)">
      <path
         d="m 0,0 c -0.653,-3.072 -2.468,-4.482 -4.543,-4.482 -2.077,0 -3.291,1.41 -2.639,4.482 0.654,3.072 2.469,4.482 4.544,4.482 C -0.563,4.482 0.653,3.072 0,0 m -1.914,7.887 c -3.86,0 -5.844,-0.644 -7.493,-1.661 -1.982,-1.224 -3.59,-3.321 -4.209,-6.226 -0.952,-4.482 1.023,-7.886 8.348,-7.886 3.861,0 6.675,1.037 8.625,2.594 C 4.854,-4.109 5.943,-2.303 6.433,0 7.387,4.482 5.412,7.887 -1.914,7.887 m 45.335,-0.395 -15.883,0 -0.672,-3.155 4.918,0 -2.513,-11.83 6.309,0 2.514,11.83 4.655,0 0.672,3.155 z M -19.991,2.45 c -0.313,-1.474 -1.228,-1.973 -3.47,-1.973 l -1.287,0 0.821,3.861 1.909,0 c 1.805,0 2.291,-0.645 2.027,-1.888 m 1.115,5.042 -12.29,0 -0.955,-4.46 1.607,0 -2.237,-10.525 6.309,0 1.024,4.815 4.939,0 c 3.154,0 5.861,1.308 6.637,4.961 0.83,3.902 -1.424,5.209 -5.034,5.209 M 20.132,2.677 C 19.833,1.267 18.706,0.851 17.357,0.851 l -2.407,0 0.768,3.611 2.303,0 c 1.536,0 2.395,-0.455 2.111,-1.785 m 0.589,4.815 -12.266,0 -0.955,-4.46 1.604,0 -2.237,-10.525 6.309,0 1.157,5.438 1.476,0 c 1.055,0 1.595,-0.425 1.885,-1.35 l 1.38,-4.088 6.378,0 -2.859,6.827 c 1.939,0.332 3.336,2.037 3.653,4.029 0.503,3.178 -1.437,4.129 -5.525,4.129 m -61.012,0.395 c -5.998,0 -9.32,-1.474 -10.018,-4.753 -0.18,-0.85 -0.157,-1.909 0.503,-2.615 1.637,-1.765 8.647,-2.47 9.295,-3.424 0.126,-0.187 0.181,-0.416 0.125,-0.686 -0.256,-1.202 -1.734,-1.515 -3.042,-1.515 -0.829,0 -1.345,0.208 -1.676,0.603 -0.312,0.394 -0.349,0.995 -0.193,1.825 l -6.434,0 c -0.467,-2.781 -0.589,-5.208 7.547,-5.208 6.827,0 9.849,1.909 10.479,4.877 0.31,1.452 -0.12,2.262 -0.591,2.78 -1.613,1.786 -8.404,2.45 -9.18,3.384 -0.152,0.166 -0.173,0.456 -0.126,0.684 0.164,0.769 0.977,1.267 2.304,1.267 0.789,0 1.39,-0.104 1.759,-0.415 0.391,-0.311 0.55,-0.83 0.415,-1.66 l 6.185,0 c 0.574,3.091 -0.98,4.856 -7.352,4.856 M 60.451,3.03 c 0.575,3.093 -0.98,4.857 -7.353,4.857 -6,0 -9.325,-1.473 -10.023,-4.753 -0.18,-0.852 -0.156,-1.909 0.503,-2.616 1.639,-1.765 8.652,-2.471 9.299,-3.426 0.127,-0.187 0.182,-0.415 0.125,-0.686 -0.256,-1.203 -1.733,-1.515 -3.042,-1.515 -0.829,0 -1.346,0.209 -1.678,0.602 -0.31,0.396 -0.35,0.997 -0.193,1.827 l -6.437,0 c -0.433,-2.587 -0.566,-4.867 5.963,-5.174 3.227,0.78 6.415,1.289 9.601,1.536 1.403,0.832 2.184,1.959 2.47,3.306 0.309,1.453 -0.121,2.263 -0.591,2.782 -1.615,1.786 -8.407,2.45 -9.184,3.385 -0.152,0.165 -0.174,0.455 -0.125,0.684 0.164,0.769 0.976,1.267 2.304,1.267 0.788,0 1.389,-0.104 1.761,-0.415 0.39,-0.311 0.548,-0.83 0.413,-1.661 l 6.187,0 z"
         style="fill:#000000;fill-opacity:1;fill-rule:nonzero;stroke:none"
         id="path174"
         inkscape:connector-curvature="0" />
    </g>
    <g
       id="g176"
       transform="matrix(2.7494023,0,0,-2.7494023,447.90996,513.84678)">
      <path
         d="m 0,0 c 3.507,3.563 11.949,0.342 12.819,0.429 0.445,0.044 0.648,0.678 -0.235,1.03 -8.377,3.339 -20.746,4.194 -27.54,2.967 -0.749,-0.208 -1.006,-0.86 0.173,-1.003 1.184,-0.144 4.21,-0.373 8.53,-1.392 2.396,-0.565 4.165,-1.333 5.676,-2.166 C -0.377,-0.236 -0.199,-0.201 0,0"
         style="fill:#00558c;fill-opacity:1;fill-rule:nonzero;stroke:none"
         id="path178"
         inkscape:connector-curvature="0" />
    </g>
    <g
       id="g180"
       transform="matrix(2.7494023,0,0,-2.7494023,485.13442,505.11248)">
      <path
         d="m 0,0 0.71,3.378 c -13.164,3.983 -25.762,3.776 -39.046,-0.951 -0.672,-0.234 -0.887,-1.209 0.5,-0.989 2.045,0.316 10.298,1.425 17.653,1.464 5.905,0.03 13.054,-1.215 19.037,-3.196 C -0.453,-0.493 -0.113,-0.386 0,0"
         style="fill:#c8102e;fill-opacity:1;fill-rule:nonzero;stroke:none"
         id="path182"
         inkscape:connector-curvature="0" />
    </g>
  </g>
</svg>
