<svg xmlns="http://www.w3.org/2000/svg" height="88.033" viewBox="0 0 272.00391 88.033447" width="272">
 <g transform="matrix(.5 0 0 .5 -.91333 -.38155)">
  <rect height="127.44" width="127.44" y="44.28" x="416.26" fill="#fff"/>
  <path fill="#020d6e" d="m174.03 2.8477c-5.9573 0.016163-12.34 2.8364-15.305 7.2988-6.2545 9.4146-1.5947 23.362 8.7715 26.258 5.3665 1.499 12.225 0.59142 16.4-2.1719l3.6016-2.3848v-7.0176-7.0176h-7.9688-7.9688v3.2812c0 3.2639 0.0223 3.2812 4.2188 3.2812 3.5686 0 4.2188 0.28367 4.2188 1.8418 0 5.6877-12.115 4.5858-14.818-1.3477-2.18-4.7845-0.45092-11.469 3.5156-13.592 3.0594-1.6373 7.728-1.1262 10.104 1.1055 2.1864 2.054 2.2288 2.0557 5.4512 0.32031 1.7862-0.96191 3.248-2.0253 3.248-2.3633 0-1.1966-5.1932-5.5463-7.7949-6.5293-1.7487-0.66071-3.6881-0.96828-5.6738-0.96289zm60.812 0.00586c-1.1854 0-2.3707 0.36094-3.0938 1.084-1.8971 1.8971-1.3811 6.1673 0.83008 6.8691l1.9551 0.62109-2.0332 2.1641c-1.943 2.0682-1.9569 2.2091-0.31445 3.1641 2.4537 1.4266 2.7686 1.3358 4.9316-1.4141 2.18-2.774 2.67-9.554 0.82-11.404-0.73-0.7235-1.91-1.0845-3.1-1.0845zm-214.46 0.0312c-6.358 0.2326-12.241 3.442-14.781 8.4222-2.201 4.313-2.4743 12.893-0.5296 16.631 1.9121 3.675 5.4901 6.7266 9.6094 8.1953 4.9349 1.7595 8.534 1.6411 13.09-0.42773 3.4757-1.5784 6.9219-4.9757 6.9219-6.8262 0-0.38766-1.2846-1.3713-2.8555-2.1836-2.7377-1.4157-2.9743-1.3772-5.6973 0.91406-3.6302 3.0546-7.3933 3.0514-11.031-0.0098-4.7953-4.035-4.7883-10.847 0.01563-15.322 2.9923-2.7877 8.2976-2.637 11.07 0.31445 2.0791 2.2131 2.2346 2.2351 5.3203 0.76367 1.748-0.834 3.178-2.026 3.178-2.651 0-1.9844-6.397-6.8386-9.87-7.4902-1.482-0.2781-2.974-0.3837-4.441-0.33zm236.55 0.015625c-1.9345 0.020354-3.8021 0.31321-5.3828 0.91211-4.9186 1.8636-6.8574 4.5197-6.8574 9.3926 0 3.7794 0.41637 4.7925 2.8008 6.7988 1.5409 1.2966 5.1325 2.8783 7.9805 3.5156 6.0491 1.3538 7.8771 2.9262 6.0117 5.1738-1.6634 2.0042-8.1788 1.2898-11.809-1.2949l-2.6875-1.9141-2.0625 3.1465-2.0625 3.1445 2.4726 1.9453c1.3598 1.0696 3.5643 2.1829 4.8984 2.4746 1.3342 0.29171 2.8476 0.67175 3.3633 0.84375 3.84 1.281 11.044-0.45161 14.199-3.416 2.7352-2.5696 3.7144-7.4832 2.2148-11.104-1.2486-3.0143-6.5228-6.0295-12.396-7.0879-3.7206-0.6704-5.9695-2.5403-4.9805-4.1406 0.92081-1.4899 6.5955-1.1681 10.266 0.58203 3.2049 1.5283 3.3105 1.5138 5.1562-0.70312 2.3263-2.7941 2.3422-3.0386 0.30665-4.7988-2.5919-2.2414-7.1758-3.5155-11.432-3.4707zm189.74 0.039063c-4.3952 0.016729-8.7778 1.5021-12.021 4.4531-9.2902 8.452-6.1278 24.541 5.6504 28.74 6.2656 2.234 13.842 0.99614 18.332-2.9961 2.8365-2.5221 5.3887-8.6712 5.3887-12.98 0-4.2289-2.541-10.448-5.252-12.855-3.3-2.9269-7.7-4.3788-12.1-4.362zm-340.16 0.0351c-5.88-0.1567-12.054 2.3113-15.283 7.1714-6.2587 9.4209-1.5558 23.471 8.7715 26.207 4.8335 1.2806 6.7185 1.3097 10.822 0.16992 3.17-0.881 9.18-5.696 9.18-7.359 0-0.38046-1.4672-1.3923-3.2617-2.248-3.1924-1.5224-3.3142-1.5061-5.584 0.76367-5.3543 5.3543-14.592 0.53497-14.592-7.6133 0-3.0821 2.3694-7.5767 4.6348-8.7891 3.0546-1.6348 7.2921-1.1003 10.045 1.2676 2.4843 2.1369 2.7274 2.1697 5.6758 0.76367 3.6066-1.7199 3.6733-1.9907 1.2324-5.0938-2.6806-3.4078-7.0697-5.1183-11.641-5.2402zm103.17 0.027344c-6.5583-0.14234-13.221 2.8172-15.938 8.541-0.88701 1.8692-1.5527 5.5866-1.5527 8.6719 0 8.7437 4.3292 14.444 12.656 16.662 2.9434 0.78417 9.684-0.15115 13.234-1.8359 1.9396-0.92038 4.2042-3.1872 5.6524-5.6582 2.1018-3.5863 2.3696-4.9552 2.0547-10.527-0.29277-5.1814-0.84878-7.042-2.9024-9.7344-3.0673-4.0215-8.1042-6.0084-13.205-6.1191zm-170.3 0.7481v16.406 16.406h3.75 3.75v-6.5625-6.5625h7.0312 7.0312v6.5625 6.5625h4.2188 4.2188v-16.406-16.406h-4.2188-4.2188v6.0938 6.0938h-7.0312-7.0312v-6.0938-6.0938h-3.75-3.75zm36.562 0v16.406 16.406h3.75 3.75v-16.406-16.406h-3.75-3.75zm239.29 0l-3.98 11.25c-2.1894 6.1875-4.1012 11.25-4.248 11.25-0.14687 0-2.099-5.0616-4.3379-11.248l-4.0703-11.248-4.5527-0.00195c-3.2631-0.00139-4.4247 0.33012-4.0957 1.1699 0.25248 0.64453 3.0968 8.0273 6.3203 16.406l5.8613 15.234h4.7988 4.7988l4.5801-11.953c2.5195-6.5742 5.3606-13.957 6.3125-16.406l1.74-4.453h-4.5586-4.5586zm12.895 0v16.406 16.406h11.719 11.719v-3.2812-3.2812h-7.9688-7.9688v-3.2812-3.2812h7.9688 7.9688v-3.75-3.75h-7.9688-7.9688v-2.8125-2.8125h7.9688 7.9688v-3.2812-3.2812h-11.719-11.719zm29.062 0v16.406 16.406h3.75 3.75v-5.625c0-5.2865 0.13295-5.625 2.2129-5.625 1.7468 0 2.8446 1.1852 5.2109 5.625l2.998 5.625h4.6797 4.6777l-3.4043-6.0879-3.4062-6.0898 2.7852-2.3438c3.4677-2.9179 4.5058-7.608 2.6602-12.025-2.25-5.4154-4.4-6.265-15.8-6.265h-10.104zm32.283 0c-5.1936 0-5.2944-0.49532 2.2852 11.223 5.5948 8.6494 5.7441 9.0436 5.7441 15.234v6.3555h3.75 3.75v-6.5195c0-6.4362 0.0781-6.6401 6.0938-15.91 3.3516-5.1647 6.0938-9.6139 6.0938-9.8867 0-0.27283-2.0039-0.49012-4.4531-0.48242-4.43 0.0136-4.45 0.0248-7.72 5.611-1.8047 3.0784-3.4922 5.5995-3.75 5.6016-0.25781 0.002-2.032-2.5233-3.9434-5.6113-3.44-5.5582-3.52-5.6153-7.84-5.6153zm79.984 0c-3.3346 0-4.5295 0.33238-4.2129 1.1719 0.24308 0.64453 1.5784 5.1797 2.9688 10.078 1.3904 4.8984 3.3651 11.754 4.3867 15.234l1.8574 6.3281h4.0762 4.0762l1.9297-7.2656c1.0618-3.9961 2.2408-8.5312 2.6191-10.078 0.59721-2.4419 1.0114-1.5154 3.1406 7.0312l2.4512 9.8438 4.2637 0.2793 4.2637 0.28125 4.3613-15.303c2.42-8.414 4.38-15.817 4.38-16.45 0-0.7337-1.49-1.15-4.11-1.15h-4.1113l-2.6074 10.51-2.61 10.511-2.77-10.511-2.78-10.51h-3.1367c-3.3923 0-3.658 0.54098-7.0176 14.312-0.59963 2.458-1.3854 4.6521-1.7461 4.875-0.36066 0.2229-1.6342-4.0027-2.8301-9.3906l-2.17-9.796h-4.6543zm45.232 0v16.406 16.406h3.7168 3.7168l0.26758-9.541 0.26758-9.543 6.959 9.543c6.7266 9.2225 7.0796 9.541 10.547 9.541h3.5879v-16.406-16.406h-3.7168-3.7148l-0.26953 9.0293-0.26758 9.0273-6.502-9.0273c-6.49-9.0126-6.51-9.029-10.55-9.029h-4.0449zm-381.05 0.46875-5.8281 15c-3.2056 8.25-5.8522 15.527-5.8809 16.172-0.0345 0.77352 1.398 1.1719 4.2148 1.1719 3.8988 0 4.3523-0.243 5.248-2.8125 0.95984-2.7534 1.1144-2.8125 7.3594-2.8125s6.3995 0.05912 7.3594 2.8125c0.89572 2.5695 1.3492 2.8125 5.248 2.8125 2.8221 0 4.2462-0.39691 4.2051-1.1719-0.0342-0.64453-2.6958-7.9219-5.916-16.172l-5.8555-15h-5.0781-5.0762zm312.78 6.0137c4.5905-0.10146 9.2109 3.4456 9.2109 9.9238 0 3.5722-0.4965 4.8598-2.7402 7.1035-6.7916 6.7917-17.596-0.31802-14.941-9.832 1.3479-4.8307 4.9003-7.1164 8.4707-7.1953zm-237.34 0.08c1.6147 0 3.7482 0.43393 4.7402 0.96484 2.1656 1.159 4.6348 5.6657 4.6348 8.457 0 3.2716-2.7257 8.0489-5.2461 9.1973-4.9416 2.2515-9.8172 0.58561-12.049-4.1172-1.8283-3.8528-1.8378-6.3556-0.0391-9.834 1.7081-3.3032 4.036-4.668 7.959-4.668zm155.62 0h3.8125c6.3673 0 9.5116 3.1759 6.3125 6.375-0.61875 0.61875-3.15 1.125-5.625 1.125h-4.5v-3.75-3.75zm-226.04 3.75c0.62334 0 3.8617 8.0794 3.8516 9.6094-0.003 0.38672-1.6914 0.70312-3.7539 0.70312s-3.75-0.34576-3.75-0.76953c0-1.6424 3.0236-9.543 3.6523-9.543zm94.289 29.193c-11.494-0.01539-19.931 2.0099-30.441 7.0781-16.763 8.0835-29.275 23.87-33.316 42.033-2.3868 10.728-1.5596 29.264 1.7598 39.426 7.1046 21.75 24.97 37.013 49.369 42.182 7.5553 1.6004 25.463 1.0768 32.918-0.96289 10.829-2.9627 20.978-8.6067 29.045-16.152l4.5996-4.3027v-24.248-24.246h-30.469-30.469v10.312 10.312h19.219 19.219v9.1992c0 10.436 0.0169 10.411-10.115 15.545-17.865 9.0527-38.05 5.4888-51.488-9.0898-15.787-17.127-15.235-47.161 1.1777-64.01 16.395-16.831 44.43-16.52 59.957 0.66602l3.3809 3.7422 9.0352-5.0449c4.9691-2.775 9.1946-5.5272 9.3906-6.1152 0.57129-1.7139-13.819-15.549-19.463-18.711-8.8711-4.971-16.256-6.9318-28.18-7.4844-1.7818-0.08257-3.4868-0.12671-5.1289-0.12891zm-153.88 1.745-12.575 46.873c-6.915 25.777-12.798 46.877-13.072 46.877-0.27418 0.001-5.7979-20.986-12.275-46.639l-11.778-46.642-12.802-0.262c-9.9004-0.20171-12.804 0.0108-12.811 0.9375-0.00448 0.65908 8.0767 29.359 17.959 63.777l17.969 62.578h12.307 12.309l11.578-44.297c6.3688-24.363 11.843-44.8 12.164-45.416 0.32067-0.61577 5.6124 17.947 11.76 41.25 6.1473 23.303 11.542 43.741 11.988 45.416l0.8125 3.0469 12.379-0.002h12.377l17.738-62.578c9.75-34.417 17.91-63.104 18.14-63.748 0.31-0.901-2.62-1.172-12.7-1.172h-13.109l-11.5 46.172c-6.3244 25.395-11.766 46.692-12.094 47.326-0.32791 0.63435-6.2804-20.139-13.227-46.162l-12.631-47.316-9.457-0.01-9.457-0.01zm217.2 0v63.75 63.75h11.709 11.711l0.24219-45.17 0.24414-45.168 32.34 45.168 32.34 45.17h11.02 11.02v-63.75-63.75h-11.24-11.242l-0.24219 44.09-0.24414 44.09-31.77-44.09-31.77-44.09h-12.06-12.06zm120 0v63.768 63.768l21.244-0.25196 21.246-0.25195 12.561-22.365c6.9092-12.301 12.408-22.52 12.219-22.709-0.1892-0.18919-2.0075 0.11614-4.041 0.67774s-6.4395 0.82353-9.791 0.58203c-11.069-0.79757-19.968-7.2209-25.025-18.061-2.4358-5.221-2.6474-6.624-2.9492-19.545-0.2863-12.258-0.0841-14.674 1.7012-20.227 3.4488-10.726 10.897-18.827 21.205-23.064l5.5371-2.2754-26.953-0.02344-26.95-0.031zm127.5 0-26.016 0.01563-26.016 0.01563 6.6504 3.2363c15.346 7.4676 21.835 20.732 20.781 42.48-0.67309 13.897-2.7158 19.319-19.355 51.377-7.7349 14.902-14.343 27.832-14.686 28.734-0.58443 1.541 1.1772 1.6406 29.01 1.6406h29.631v-63.75-63.75zm-63.264 20.971c-3.3592-0.0078-6.7141 0.67663-8.5625 2.0566-5.702 4.2572-6.4284 6.2016-6.7852 18.176-0.38812 13.027 1.2256 18.307 6.5938 21.58 4.0699 2.4813 12.214 2.5685 16.672 0.17774 5.5605-2.9821 7.0644-7.3038 7.0644-20.305 0-12.39-1.0488-15.604-6.3965-19.59-1.863-1.3887-5.2267-2.0879-8.5859-2.0957z"/>
 </g>
</svg>
