<?xml version="1.0" encoding="UTF-8" standalone="no"?>
<!-- Created with Inkscape (http://www.inkscape.org/) -->

<svg xmlns:dc="http://purl.org/dc/elements/1.1/" xmlns:cc="http://creativecommons.org/ns#" xmlns:rdf="http://www.w3.org/1999/02/22-rdf-syntax-ns#" xmlns:svg="http://www.w3.org/2000/svg" xmlns="http://www.w3.org/2000/svg" xmlns:xlink="http://www.w3.org/1999/xlink" xmlns:sodipodi="http://sodipodi.sourceforge.net/DTD/sodipodi-0.dtd" xmlns:inkscape="http://www.inkscape.org/namespaces/inkscape" width="3167.1499" height="1000" id="svg2" version="1.1" inkscape:version="0.48.5 r10040" sodipodi:docname="PIX 11 2017.svg">
  <defs id="defs4">
    <linearGradient inkscape:collect="always" id="linearGradient3198">
      <stop style="stop-color:#373838;stop-opacity:1" offset="0" id="stop3200" />
      <stop style="stop-color:black;stop-opacity:1" offset="1" id="stop3202" />
    </linearGradient>
    <linearGradient inkscape:collect="always" id="linearGradient3190">
      <stop style="stop-color:black;stop-opacity:1" offset="0" id="stop3192" />
      <stop style="stop-color:#3e3e3e;stop-opacity:1" offset="1" id="stop3194" />
    </linearGradient>
    <linearGradient inkscape:collect="always" id="linearGradient3009">
      <stop style="stop-color:#7c02bb;stop-opacity:1" offset="0" id="stop3011" />
      <stop style="stop-color:#591b8d;stop-opacity:1" offset="1" id="stop3013" />
    </linearGradient>
    <linearGradient inkscape:collect="always" id="linearGradient3001">
      <stop style="stop-color:#7d01ba;stop-opacity:1" offset="0" id="stop3003" />
      <stop style="stop-color:#4255a7;stop-opacity:0;" offset="1" id="stop3005" />
    </linearGradient>
    <linearGradient inkscape:collect="always" xlink:href="#linearGradient3001" id="linearGradient3007" x1="-67.142853" y1="-370.49496" x2="-67.142853" y2="629.4729" gradientUnits="userSpaceOnUse" />
    <linearGradient inkscape:collect="always" xlink:href="#linearGradient3009" id="linearGradient3015" x1="469.31232" y1="0.072402395" x2="469.31232" y2="999.92761" gradientUnits="userSpaceOnUse" />
    <radialGradient inkscape:collect="always" xlink:href="#linearGradient3190" id="radialGradient3196" cx="940.7334" cy="400.82819" fx="940.7334" fy="400.82819" r="112.8757" gradientTransform="matrix(-4.8704213e-7,1.1843786,-1.2943997,-8.6916624e-8,1417.8621,-639.18521)" gradientUnits="userSpaceOnUse" />
    <radialGradient inkscape:collect="always" xlink:href="#linearGradient3198" id="radialGradient3204" cx="190.66913" cy="39.778538" fx="190.66913" fy="39.778538" r="38.378689" gradientTransform="matrix(0.94559745,0,1.0358283e-5,1.0038259,10.372472,-0.14739326)" gradientUnits="userSpaceOnUse" />
    <linearGradient inkscape:collect="always" xlink:href="#linearGradient3009" id="linearGradient3020" gradientUnits="userSpaceOnUse" x1="469.31232" y1="0.072402395" x2="469.31232" y2="999.92761" />
    <radialGradient inkscape:collect="always" xlink:href="#linearGradient3198" id="radialGradient3022" gradientUnits="userSpaceOnUse" gradientTransform="matrix(0.94559745,0,1.0358283e-5,1.0038259,10.372472,-0.14739326)" cx="190.66913" cy="39.778538" fx="190.66913" fy="39.778538" r="38.378689" />
    <radialGradient inkscape:collect="always" xlink:href="#linearGradient3190" id="radialGradient3024" gradientUnits="userSpaceOnUse" gradientTransform="matrix(-4.8704213e-7,1.1843786,-1.2943997,-8.6916624e-8,1417.8621,-639.18521)" cx="940.7334" cy="400.82819" fx="940.7334" fy="400.82819" r="112.8757" />
    <linearGradient inkscape:collect="always" xlink:href="#linearGradient3009" id="linearGradient3039" gradientUnits="userSpaceOnUse" x1="469.31232" y1="0.072402395" x2="469.31232" y2="999.92761" gradientTransform="matrix(1.0872274,0,0,1,-574.53493,-370.49496)" />
    <radialGradient inkscape:collect="always" xlink:href="#linearGradient3198" id="radialGradient3041" gradientUnits="userSpaceOnUse" gradientTransform="matrix(1.3890893,2.7717037e-5,4.3413574e-4,1.4493075,-716.25194,-12.373945)" cx="652.72504" cy="32.682602" fx="652.72504" fy="32.682602" r="38.378689" />
    <radialGradient inkscape:collect="always" xlink:href="#linearGradient3190" id="radialGradient3043" gradientUnits="userSpaceOnUse" gradientTransform="matrix(0.18763101,1.36134,-1.4201788,0.19574994,-1043.103,-382.26565)" cx="800.85822" cy="-1262.9895" fx="800.85822" fy="-1262.9895" r="112.8757" />
  </defs>
  <sodipodi:namedview id="base" pagecolor="#ffffff" bordercolor="#666666" borderopacity="1.0" inkscape:pageopacity="0.0" inkscape:pageshadow="2" inkscape:zoom="0.24748738" inkscape:cx="1737.9202" inkscape:cy="-156.21517" inkscape:document-units="px" inkscape:current-layer="layer1" showgrid="false" fit-margin-top="0" fit-margin-left="0" fit-margin-right="0" fit-margin-bottom="0" inkscape:object-paths="false" inkscape:window-width="1920" inkscape:window-height="1017" inkscape:window-x="-4" inkscape:window-y="-4" inkscape:window-maximized="1" />
  <metadata id="metadata7">
    <rdf:RDF>
      <cc:Work rdf:about="">
        <dc:format>image/svg+xml</dc:format>
        <dc:type rdf:resource="http://purl.org/dc/dcmitype/StillImage" />
        <dc:title></dc:title>
      </cc:Work>
    </rdf:RDF>
  </metadata>
  <g inkscape:label="Layer 1" inkscape:groupmode="layer" id="layer1" transform="translate(473.60683,728.71586)">
    <g id="g3213" transform="matrix(3.8151056,0,0,3.8151056,1333.2534,-763.69348)">
      <g style="fill:white" transform="matrix(3.472068,0,0,3.3877777,-553.914,13.33459)" id="g3248">
        <g style="fill:white" id="g3156">
          <path style="fill:black" sodipodi:nodetypes="ccccccccsssccccs" d="m 23.12948,8.7163683 36.474398,0 c 17.215967,0 24.156375,11.8697447 24.203496,20.4357937 0,11.085603 -8.928817,20.749718 -23.572432,20.749718 l -19.678512,0.145322 0,16.104798 -17.42695,0 z M 61.618019,36.003272 c 1.562845,0.0011 4.966132,-2.858995 4.966132,-6.888527 0,-3.458477 -2.786862,-6.285331 -5.274718,-6.374268 l -1.474489,-0.05271 -19.20158,0 -0.07606,13.314501 19.684078,0 z" id="path3225" inkscape:connector-curvature="0" />
          <path style="fill:black" d="m 87.26619,8.5710262 17.438,0 0,57.6803958 -17.438,0 z" id="rect3227" inkscape:connector-curvature="0" />
          <path style="fill:black" sodipodi:nodetypes="ccccccccccccc" inkscape:connector-curvature="0" id="polygon3229" d="m 160.80283,8.94 23.90382,0 -28.7134,27.411298 30.12874,29.800702 -24.78588,0 L 143.00199,47.744501 123.947,66.152 99.572859,66.152 131.09462,36.798561 101.87,8.94 l 25.79435,0 16.17595,16.530446 z" transform="matrix(0.92233219,0,0,1,14.477124,0)" />
        </g>
      </g>
      <g id="g3206">
        <g id="g3253" transform="matrix(3.4864884,0,0,3.401848,-560.47999,9.1681911)" style="fill:white">
          <path d="m 224.64631,0 c -21.19132,0 -38.37869,17.246503 -38.37869,38.522535 0,21.280015 17.18638,38.52851 38.37869,38.52851 21.19826,0 38.37869,-17.247499 38.37869,-38.52851 C 263.02401,17.246503 245.84457,0 224.64631,0 m 0,68.211179 c -16.32726,0 -29.56824,-13.292665 -29.56824,-29.68964 0,-16.397972 13.24098,-29.6836648 29.56824,-29.6836648 16.33421,0 29.56824,13.2856928 29.56824,29.6836648 0,16.397971 -13.23403,29.68964 -29.56824,29.68964" id="path3219" inkscape:connector-curvature="0" style="fill:url(#radialGradient3041);fill-opacity:1" />
          <path d="m 225.313,21.8 c 0.643,0.318 1.803,1.13 1.803,2.104 V 62 h 12.162 V 14.848 L 225.313,21.8 z" id="path3221" inkscape:connector-curvature="0" style="fill:black" />
          <path d="m 208.39949,21.8 c 0.643,0.318 1.803,1.13 1.803,2.104 V 62 h 12.168 V 14.848 l -13.971,6.952 z" id="path3223" inkscape:connector-curvature="0" style="fill:black" />
        </g>
        <path style="fill:url(#radialGradient3043);fill-opacity:1;stroke:none" d="m 814.72623,610.22596 c 0,0 83.80446,-13.1743 83.80446,-100.14994 0,-52.03908 -39.54055,-98.99495 -97.47972,-98.99495 -74.76823,0 -95.96449,55.05331 -95.96449,55.05331 0,0 23.19582,-80.81221 121.72338,-80.81221 42.84841,0 104.02802,53.39554 104.02802,124.77714 0,111.56399 -116.11165,100.12665 -116.11165,100.12665 z" id="path3188" inkscape:connector-curvature="0" transform="translate(-574.28571,-370.49496)" sodipodi:nodetypes="csscssc" />
      </g>
    </g>
  </g>
</svg>
